<svg width="297" height="290" viewBox="0 0 297 290" fill="none" xmlns="http://www.w3.org/2000/svg">
<path d="M295.826 252.395H1.17418C0.996153 252.395 0.825418 252.324 0.699534 252.198C0.57365 252.072 0.50293 251.901 0.50293 251.723C0.50293 251.545 0.57365 251.374 0.699534 251.248C0.825418 251.122 0.996153 251.051 1.17418 251.051H295.826C296.004 251.051 296.175 251.122 296.301 251.248C296.427 251.374 296.497 251.545 296.497 251.723C296.497 251.901 296.427 252.072 296.301 252.198C296.175 252.324 296.004 252.395 295.826 252.395Z" fill="#B7B7B7"/>
<path d="M264.855 100.794H252.101V279.773H264.855V100.794Z" fill="white"/>
<path d="M264.855 280.445H252.101C251.923 280.445 251.752 280.374 251.626 280.248C251.5 280.122 251.43 279.951 251.43 279.773V100.794C251.43 100.616 251.5 100.445 251.626 100.319C251.752 100.193 251.923 100.122 252.101 100.122H264.855C265.032 100.126 265.2 100.198 265.326 100.323C265.451 100.448 265.523 100.617 265.526 100.794V279.813C265.516 279.984 265.44 280.145 265.316 280.262C265.191 280.38 265.026 280.445 264.855 280.445ZM252.772 279.101H264.183V101.466H252.772V279.101Z" fill="#B7B7B7"/>
<path d="M44.9129 100.794H32.1592V279.773H44.9129V100.794Z" fill="white"/>
<path d="M44.8996 280.445H32.1459C31.9678 280.445 31.7971 280.374 31.6712 280.248C31.5453 280.122 31.4746 279.951 31.4746 279.773V100.794C31.478 100.617 31.5499 100.448 31.675 100.323C31.8002 100.198 31.9689 100.126 32.1459 100.122H44.8996C45.0776 100.122 45.2484 100.193 45.3743 100.319C45.5001 100.445 45.5709 100.616 45.5709 100.794V279.813C45.5606 279.984 45.4853 280.145 45.3606 280.262C45.2358 280.38 45.0709 280.445 44.8996 280.445ZM32.8171 279.101H44.2284V101.466H32.8171V279.101Z" fill="#B7B7B7"/>
<path d="M279.716 140.572H17.2842V171.187H279.716V140.572Z" fill="white"/>
<path d="M279.716 171.859H17.284C17.106 171.859 16.9353 171.788 16.8094 171.662C16.6835 171.536 16.6128 171.365 16.6128 171.187V140.572C16.6128 140.393 16.6835 140.223 16.8094 140.097C16.9353 139.971 17.106 139.9 17.284 139.9H279.716C279.894 139.9 280.065 139.971 280.191 140.097C280.316 140.223 280.387 140.393 280.387 140.572V171.187C280.387 171.365 280.316 171.536 280.191 171.662C280.065 171.788 279.894 171.859 279.716 171.859ZM17.9284 170.516H279.045V141.243H17.9553L17.9284 170.516Z" fill="#B7B7B7"/>
<path d="M279.716 98.7655H17.2842V129.381H279.716V98.7655Z" fill="white"/>
<path d="M279.716 130.053H17.284C17.106 130.053 16.9353 129.982 16.8094 129.856C16.6835 129.73 16.6128 129.559 16.6128 129.381V98.7655C16.6128 98.5873 16.6835 98.4165 16.8094 98.2905C16.9353 98.1646 17.106 98.0938 17.284 98.0938H279.716C279.894 98.0938 280.065 98.1646 280.191 98.2905C280.316 98.4165 280.387 98.5873 280.387 98.7655V129.354C280.391 129.445 280.376 129.535 280.344 129.62C280.312 129.704 280.263 129.781 280.2 129.847C280.138 129.912 280.062 129.964 279.979 129.999C279.896 130.035 279.806 130.053 279.716 130.053ZM17.9284 128.709H279.045V99.4372H17.9553L17.9284 128.709Z" fill="#B7B7B7"/>
<path d="M279.716 190.344H17.2842V202.166H279.716V190.344Z" fill="white"/>
<path d="M279.716 202.837H17.284C17.106 202.837 16.9353 202.767 16.8094 202.641C16.6835 202.515 16.6128 202.344 16.6128 202.166V190.344C16.6128 190.166 16.6835 189.995 16.8094 189.869C16.9353 189.743 17.106 189.672 17.284 189.672H279.716C279.894 189.672 280.065 189.743 280.191 189.869C280.316 189.995 280.387 190.166 280.387 190.344V202.166C280.387 202.344 280.316 202.515 280.191 202.641C280.065 202.767 279.894 202.837 279.716 202.837ZM17.9284 201.494H279.045V191.016H17.9553L17.9284 201.494Z" fill="#B7B7B7"/>
<path d="M81.0261 116.458L67.1849 173.861C66.8311 176.229 65.8008 178.445 64.218 180.242C62.5359 181.859 60.5325 183.104 58.3379 183.896C55.3709 185.105 52.5248 185.239 49.7727 187.039C49.4652 187.196 49.197 187.419 48.9878 187.694C48.7786 187.968 48.6339 188.286 48.5645 188.624C48.5685 188.929 48.6557 189.226 48.8166 189.484C48.9776 189.742 49.2061 189.951 49.4774 190.089C50.0289 190.35 50.6264 190.501 51.236 190.532C59.4521 191.486 67.5608 191.674 75.4816 189.095C80.3012 187.536 81.6034 184.943 82.8116 180L99.4049 118.997" fill="white"/>
<path d="M61.157 191.889C57.8171 191.866 54.4817 191.641 51.1688 191.217C50.4643 191.183 49.7744 191.005 49.1416 190.693C48.7506 190.496 48.4235 190.192 48.1978 189.816C47.9722 189.44 47.8572 189.009 47.8662 188.571C47.9437 188.129 48.1205 187.711 48.3833 187.348C48.6462 186.985 48.9881 186.686 49.3832 186.475C51.0651 185.42 52.9191 184.67 54.8606 184.258C55.9508 183.992 57.0226 183.656 58.0692 183.251C60.174 182.49 62.0984 181.3 63.7211 179.758C65.2176 178.046 66.1873 175.937 66.5135 173.686L80.3547 116.297C80.3974 116.118 80.5091 115.965 80.6652 115.869C80.8213 115.773 81.009 115.743 81.1871 115.786C81.3651 115.829 81.5189 115.941 81.6145 116.097C81.7102 116.253 81.7399 116.441 81.6972 116.619L67.856 174.022C67.4789 176.517 66.3878 178.85 64.7146 180.739C62.9588 182.419 60.8745 183.718 58.5928 184.554C57.4888 184.979 56.3588 185.334 55.2097 185.615C53.4222 185.986 51.7137 186.668 50.1619 187.63C49.786 187.885 49.2758 188.275 49.249 188.678C49.2641 188.852 49.3239 189.019 49.4228 189.162C49.5216 189.306 49.656 189.421 49.8128 189.498C50.2872 189.711 50.7971 189.834 51.3164 189.86C58.4585 190.693 66.876 191.204 75.2666 188.45C79.7237 186.999 80.9454 184.729 82.1268 179.852L98.7335 118.822C98.7939 118.659 98.9132 118.523 99.0681 118.443C99.223 118.363 99.4022 118.344 99.5704 118.39C99.7387 118.435 99.8839 118.542 99.9775 118.689C100.071 118.836 100.106 119.013 100.076 119.185L83.4693 180.188C82.2074 185.373 80.7843 188.141 75.6962 189.766C70.991 191.232 66.0846 191.949 61.157 191.889Z" fill="#231F20"/>
<path d="M201.032 251.723C201.032 251.723 201.771 276.858 203.462 276.979C205.154 277.099 239.589 289.915 242.663 286.1C245.348 282.795 243.67 275.071 237.468 272.908C228.849 269.886 222.459 261.624 222.459 261.624L221.666 245.234" fill="white"/>
<path d="M239.938 287.497C234.635 287.497 223.828 284.313 208.819 279.437C206.228 278.577 203.771 277.771 203.449 277.731C202.764 277.731 201.14 277.556 200.401 251.79C200.398 251.699 200.412 251.608 200.444 251.523C200.476 251.437 200.525 251.359 200.588 251.293C200.65 251.227 200.725 251.174 200.808 251.137C200.892 251.1 200.982 251.08 201.073 251.078C201.255 251.078 201.43 251.147 201.562 251.272C201.694 251.397 201.774 251.568 201.784 251.75C202.106 262.766 202.939 274.802 203.798 276.387C204.415 276.508 205.865 276.992 209.302 278.12C216.914 280.633 240.113 288.29 242.18 285.724C242.753 284.841 243.115 283.837 243.239 282.791C243.362 281.745 243.243 280.685 242.892 279.692C242.522 278.299 241.819 277.018 240.844 275.957C239.868 274.897 238.65 274.09 237.293 273.607C228.581 270.557 222.23 262.443 221.975 262.094C221.881 261.986 221.828 261.848 221.828 261.704L221.022 245.328C221.015 245.145 221.08 244.967 221.203 244.831C221.326 244.695 221.497 244.613 221.68 244.603C221.773 244.589 221.867 244.596 221.957 244.623C222.047 244.65 222.129 244.697 222.199 244.76C222.268 244.823 222.323 244.9 222.359 244.987C222.394 245.074 222.41 245.168 222.405 245.261L223.197 261.382C224.15 262.551 230.097 269.577 237.763 272.263C239.328 272.822 240.733 273.752 241.86 274.973C242.987 276.195 243.802 277.671 244.234 279.276C244.645 280.482 244.771 281.768 244.6 283.032C244.43 284.295 243.969 285.502 243.254 286.557C242.8 286.942 242.27 287.225 241.698 287.387C241.126 287.549 240.526 287.587 239.938 287.497Z" fill="#231F20"/>
<path d="M117.999 251.723C117.999 251.723 104.117 253.563 98.5994 256.331C98.5994 256.331 100.17 269.335 84.4092 277.22C84.4092 277.22 79.2943 281.963 81.7242 286.691C84.1541 291.42 106.185 285.697 113.045 281.963C117.118 279.766 120.895 277.057 124.281 273.902L117.999 251.723Z" fill="white"/>
<path d="M87.1883 289.217C85.8878 289.251 84.5895 289.093 83.3354 288.747C82.8568 288.634 82.4063 288.424 82.0116 288.131C81.6168 287.837 81.2861 287.466 81.0397 287.04C78.4621 281.895 83.7247 276.965 83.9395 276.75L84.1006 276.643C99.2171 269.079 97.9283 256.573 97.9149 256.492C97.8944 256.349 97.9198 256.203 97.9873 256.075C98.0548 255.947 98.1611 255.844 98.2908 255.78C103.849 252.999 117.327 251.186 117.905 251.118C118.069 251.093 118.237 251.13 118.376 251.222C118.515 251.314 118.615 251.454 118.657 251.615L124.886 273.768C124.92 273.886 124.921 274.012 124.888 274.131C124.855 274.249 124.789 274.356 124.698 274.44C121.278 277.662 117.451 280.422 113.313 282.648C108.306 285.294 95.0822 289.217 87.1883 289.217ZM84.8121 277.838C84.2482 278.389 80.3147 282.486 82.2748 286.423C82.4435 286.677 82.6608 286.896 82.9142 287.067C83.1676 287.237 83.4521 287.356 83.7515 287.417C89.6988 289.297 107.004 284.461 112.656 281.385C116.531 279.265 120.137 276.685 123.396 273.701L117.448 252.529C114.763 252.905 104.198 254.531 99.2842 256.788C99.35 259.283 98.9211 261.767 98.0223 264.096C96.5858 268.032 93.0953 273.62 84.8121 277.798V277.838Z" fill="#231F20"/>
<path d="M112.575 154.113C112.575 154.113 78.8916 168.312 72.9443 187.697C67.2924 206.115 95.4178 261.583 95.4178 261.583L119.717 257.553C119.717 257.553 106.883 202.058 107.97 199.21C109.058 196.362 134.122 189.148 148.796 190.277C163.469 191.405 190.534 196.241 190.534 196.241L199.099 258.615L227.184 254.584C227.184 254.584 223.68 183.09 213.625 168.42C203.57 153.75 180.062 152.125 180.062 152.125L112.575 154.113Z" fill="#231F20"/>
<path d="M95.4175 262.349C95.292 262.348 95.1693 262.312 95.0628 262.246C94.9562 262.179 94.8699 262.085 94.8134 261.973C93.6722 259.703 66.6209 206.021 72.2997 187.563C74.8101 179.368 82.3281 171.147 94.6254 163.127C100.26 159.465 106.176 156.257 112.32 153.535C112.399 153.516 112.482 153.516 112.561 153.535L180.008 151.56C181.056 151.56 204.106 153.347 214.175 168.138C224.244 182.928 227.707 251.602 227.855 254.504C227.86 254.669 227.804 254.83 227.697 254.957C227.591 255.083 227.441 255.166 227.278 255.189L199.193 259.286C199.106 259.301 199.017 259.299 198.931 259.278C198.846 259.258 198.765 259.22 198.695 259.167C198.624 259.114 198.565 259.047 198.522 258.971C198.478 258.894 198.451 258.81 198.441 258.722L189.943 196.832C186.251 196.174 162.153 191.983 148.755 190.948C133.988 189.82 109.5 197.182 108.587 199.479C107.916 201.816 115.3 235.468 120.375 257.513C120.411 257.693 120.377 257.88 120.281 258.037C120.227 258.112 120.16 258.176 120.081 258.225C120.003 258.273 119.915 258.305 119.824 258.319L95.5249 262.349H95.4175ZM112.722 154.879C110.588 155.805 79.1598 169.656 73.575 188.006C68.3393 205.108 93.1755 255.74 95.7934 260.992L118.965 257.11C116.481 246.363 106.278 201.789 107.393 198.982C108.735 195.543 134.726 188.53 148.903 189.578C163.442 190.693 190.44 195.502 190.708 195.556C190.848 195.58 190.976 195.648 191.075 195.749C191.174 195.85 191.238 195.98 191.259 196.12L199.73 257.822L226.58 253.913C226.19 246.941 222.445 182.404 213.155 168.756C203.462 154.516 180.317 152.769 180.089 152.756L112.722 154.879Z" fill="#231F20"/>
<path d="M168.181 62.3195C168.181 62.3195 104.681 60.8149 93.1084 72.677C81.5361 84.539 76.4614 124.357 76.4614 124.357L102.627 131.934L107.997 112.213L112.508 154.113L180.035 152.192L176.37 110.305L201.032 102.487C201.032 102.487 188.775 67.8945 168.181 62.3195Z" fill="#C51919"/>
<path d="M159.965 39.173C159.965 39.173 167.148 24.8123 164.422 21.0642C161.697 17.3162 159.844 18.673 159.831 18.6864C162.731 16.5908 159.28 12.2785 157.414 10.8142C155.946 9.74027 154.314 8.91017 152.581 8.35584C148.345 6.66504 143.838 5.75481 139.277 5.66907C134.697 5.60803 130.229 7.08888 126.591 9.87386C121.019 14.3876 119.234 20.097 119.878 27.0692C120.308 32.0531 121.825 37.0236 122.12 41.9135C127.826 42.4912 133.585 43.2569 139.371 43.3375C143.909 43.4719 157.294 44.4928 159.965 39.173Z" fill="white"/>
<path d="M145.439 44.2107C143.721 44.2107 142.11 44.2107 140.767 44.1032H139.304C134.592 43.9823 129.907 43.4987 125.288 43.0151L121.999 42.6793C121.834 42.6608 121.68 42.5848 121.565 42.4645C121.449 42.3442 121.38 42.1873 121.368 42.021C121.156 39.4471 120.78 36.8894 120.241 34.3637C119.751 31.993 119.383 29.5986 119.14 27.1901C118.482 19.479 120.711 13.7562 126.148 9.40368C129.909 6.51439 134.536 4.98071 139.277 5.05112C143.912 5.12881 148.496 6.03885 152.81 7.73789C154.626 8.31104 156.343 9.16304 157.898 10.2634C159.388 11.4322 161.737 14.1996 161.697 16.6311C161.69 17.0424 161.604 17.4485 161.442 17.8267C162.949 18.2966 164.23 19.3058 165.04 20.6612C167.846 24.5167 161.858 37.0102 160.636 39.4686C158.556 43.539 151.373 44.2107 145.439 44.2107ZM122.711 41.309L125.396 41.5911C129.947 42.0747 134.659 42.5584 139.304 42.6658H140.781C145.668 42.8405 157.092 43.2435 159.321 38.8103C162.113 33.1681 165.631 23.8988 163.832 21.427C162.033 18.9551 160.677 18.9014 160.193 19.1969C160.041 19.2956 159.857 19.3311 159.679 19.296C159.501 19.2609 159.344 19.1579 159.24 19.0089C159.189 18.9367 159.152 18.855 159.132 18.7685C159.112 18.682 159.11 18.5925 159.125 18.5051C159.14 18.4177 159.172 18.3341 159.22 18.2591C159.267 18.1842 159.329 18.1194 159.401 18.0685C159.654 17.9043 159.861 17.6793 160.004 17.414C160.147 17.1488 160.222 16.8519 160.22 16.5505C160.22 14.7503 158.301 12.3591 156.958 11.2978C155.545 10.271 153.977 9.47734 152.313 8.94693C148.161 7.27989 143.737 6.39629 139.264 6.34077C134.837 6.26695 130.515 7.68659 126.993 10.3709C121.946 14.4682 119.878 19.7746 120.496 26.9751C120.738 29.3297 121.101 31.6703 121.583 33.9876C122.088 36.4064 122.464 38.8503 122.711 41.309Z" fill="#231F20"/>
<path d="M153.521 41.1747C154.971 35.0086 165.442 34.2294 164.395 41.5508C164.133 44.1045 162.977 46.4833 161.133 48.2677C160.197 49.1347 159.025 49.7035 157.765 49.9021C156.505 50.1006 155.215 49.9199 154.058 49.3827" fill="white"/>
<path d="M156.622 50.6858C155.617 50.6958 154.625 50.4557 153.736 49.9873C153.575 49.8991 153.455 49.751 153.402 49.575C153.349 49.399 153.368 49.2092 153.454 49.0469C153.495 48.9644 153.552 48.8912 153.622 48.8318C153.693 48.7724 153.775 48.7281 153.863 48.7016C153.951 48.6752 154.043 48.6671 154.135 48.678C154.226 48.6889 154.314 48.7184 154.394 48.7648C155.425 49.225 156.569 49.3723 157.684 49.1884C158.798 49.0045 159.834 48.4976 160.663 47.7304C162.386 46.0586 163.466 43.8325 163.711 41.4433C164.046 39.0656 163.053 37.4132 161.026 37.0774C159.58 36.8458 158.1 37.1509 156.864 37.9353C155.628 38.7196 154.721 39.929 154.313 41.3359C154.271 41.514 154.159 41.6679 154.003 41.7636C153.847 41.8594 153.659 41.8891 153.481 41.8464C153.303 41.8036 153.149 41.6918 153.053 41.5356C152.958 41.3794 152.928 41.1916 152.971 41.0135C153.452 39.2424 154.579 37.7163 156.13 36.7364C157.681 35.7565 159.543 35.394 161.348 35.7205C163.563 36.137 165.738 37.9103 165.201 41.6449C164.91 44.3588 163.674 46.8838 161.71 48.7782C160.306 50.0177 158.495 50.6967 156.622 50.6858Z" fill="#231F20"/>
<path d="M127.705 39.3477C127.168 33.0338 116.965 30.7232 116.965 38.1252C116.858 40.6898 117.657 43.2103 119.22 45.2451C120.02 46.2348 121.094 46.9657 122.307 47.3457C123.521 47.7258 124.82 47.7381 126.04 47.3811" fill="white"/>
<path d="M124.214 48.308C123.146 48.2848 122.094 48.033 121.131 47.5696C120.168 47.1062 119.315 46.4419 118.629 45.6213C116.95 43.4471 116.089 40.7502 116.199 38.0043C116.199 34.2294 118.629 32.792 120.885 32.6308C122.728 32.5932 124.518 33.2484 125.903 34.467C127.287 35.6856 128.165 37.3791 128.362 39.2133C128.399 39.314 128.413 39.4218 128.402 39.5285C128.39 39.6351 128.355 39.7378 128.298 39.8285C128.24 39.9191 128.163 39.9954 128.071 40.0513C127.98 40.1072 127.877 40.1413 127.77 40.1509C127.663 40.1605 127.556 40.1454 127.456 40.1067C127.356 40.0681 127.266 40.0069 127.193 39.9279C127.121 39.8489 127.068 39.7543 127.037 39.6513C127.007 39.5484 127.001 39.4399 127.02 39.3342C126.819 37.8723 126.089 36.5351 124.968 35.5766C123.847 34.6181 122.413 34.1052 120.938 34.1354C118.817 34.2294 117.596 35.6534 117.582 38.058C117.476 40.4729 118.216 42.8491 119.676 44.7749C120.386 45.6588 121.34 46.3137 122.419 46.6578C123.498 47.0019 124.655 47.0199 125.745 46.7094C125.923 46.6471 126.118 46.658 126.288 46.7399C126.458 46.8218 126.588 46.9679 126.651 47.146C126.713 47.3242 126.702 47.5198 126.62 47.6898C126.538 47.8599 126.392 47.9904 126.214 48.0528C125.567 48.2507 124.89 48.337 124.214 48.308Z" fill="#231F20"/>
<path d="M126.335 70.541C127.268 72.5633 128.749 74.2835 130.609 75.5063C132.47 76.7292 134.635 77.4058 136.861 77.4594C139.135 77.6875 141.43 77.3224 143.521 76.3995C145.613 75.4767 147.43 74.0276 148.795 72.1934V67.8005V57.5908V48.0528L130.135 46.7094L128.953 54.4204L128.577 56.9191L126.335 70.541Z" fill="white"/>
<path d="M138.042 78.1983C137.639 78.1983 137.236 78.1983 136.807 78.1983C128.282 77.5803 125.785 71.1187 125.678 70.8365C125.644 70.7225 125.644 70.6013 125.678 70.4873L129.329 46.6288C129.353 46.4552 129.443 46.2976 129.581 46.1897C129.719 46.0818 129.893 46.032 130.067 46.0511L148.728 47.3945C148.903 47.4048 149.067 47.4815 149.187 47.6089C149.306 47.7363 149.373 47.9047 149.373 48.0797L149.52 72.2605C149.52 72.3934 149.482 72.5235 149.413 72.6367C148.103 74.4091 146.386 75.8398 144.407 76.8079C142.427 77.7759 140.244 78.2528 138.042 78.1983ZM127.02 70.4604C127.925 72.3183 129.325 73.8899 131.067 75.0017C132.808 76.1135 134.822 76.7223 136.887 76.7609C139.007 76.9874 141.148 76.6667 143.108 75.8295C145.068 74.9923 146.781 73.6664 148.084 71.9784L147.963 48.7513L130.578 47.408L127.02 70.4604Z" fill="#231F20"/>
<path d="M128.43 56.8922C129.823 59.285 131.794 61.2896 134.162 62.7225C138.015 65.2481 143.842 68.1901 148.769 67.8005V57.5908C145.173 57.7733 141.569 57.5344 138.029 56.8788C134.872 56.5232 131.789 55.685 128.886 54.3936L128.43 56.8922Z" fill="#231F20"/>
<path d="M147.869 68.5125C142.593 68.5125 136.861 65.2884 133.8 63.2867C131.333 61.7973 129.283 59.7087 127.839 57.2147C127.771 57.0873 127.747 56.9406 127.772 56.7982L128.134 54.2995C128.153 54.1945 128.195 54.0951 128.258 54.0089C128.321 53.9228 128.402 53.8521 128.497 53.8025C128.591 53.7562 128.694 53.7322 128.799 53.7322C128.904 53.7322 129.007 53.7562 129.101 53.8025C131.945 55.0602 134.965 55.8756 138.055 56.2206C141.555 56.8714 145.119 57.1104 148.675 56.9325C148.765 56.9232 148.857 56.9341 148.942 56.9642C149.028 56.9944 149.106 57.0433 149.171 57.1072C149.239 57.168 149.294 57.2426 149.331 57.3259C149.368 57.4093 149.387 57.4996 149.386 57.5908V67.8005C149.387 67.9697 149.323 68.1329 149.209 68.2574C149.094 68.382 148.937 68.4587 148.769 68.4722C148.5 68.4991 148.191 68.5125 147.869 68.5125ZM129.074 56.7713C130.411 58.9651 132.252 60.8075 134.444 62.1449C136.834 63.7032 142.768 67.2229 148.003 67.1423V58.2759C144.58 58.3941 141.154 58.1373 137.787 57.5102C134.87 57.1567 132.01 56.4345 129.275 55.3608L129.074 56.7713Z" fill="#231F20"/>
<path d="M137.908 59.2029L139.572 59.3238C141.451 59.4629 143.339 59.2303 145.127 58.6392C146.916 58.0481 148.571 57.11 149.997 55.8787C151.423 54.6473 152.593 53.1468 153.44 51.4629C154.286 49.7789 154.793 47.9445 154.931 46.0646L156.555 23.4152L139.801 26.29L126.295 21.1851L124.63 43.848C124.493 45.7289 124.728 47.6184 125.321 49.4084C125.914 51.1984 126.855 52.8538 128.088 54.2799C129.321 55.706 130.823 56.8749 132.508 57.7196C134.193 58.5643 136.028 59.0684 137.908 59.2029Z" fill="white"/>
<path d="M140.647 60.0626C140.271 60.0626 139.895 60.0626 139.519 60.0626L137.854 59.9417C133.876 59.6462 130.178 57.7822 127.572 54.7594C124.967 51.7366 123.667 47.8023 123.959 43.8211L125.678 21.1448C125.686 21.0366 125.718 20.9317 125.774 20.8385C125.829 20.7452 125.905 20.6661 125.997 20.6074C126.088 20.5487 126.191 20.5121 126.299 20.5005C126.407 20.4889 126.516 20.5025 126.618 20.5403L139.949 25.578L156.528 22.73C156.631 22.7139 156.736 22.7209 156.835 22.7504C156.935 22.78 157.027 22.8314 157.104 22.9009C157.181 22.9704 157.242 23.0562 157.281 23.1522C157.321 23.2481 157.339 23.3517 157.334 23.4555L155.616 46.0646C155.341 49.8506 153.645 53.3926 150.868 55.9791C148.092 58.5657 144.44 60.0053 140.647 60.0089V60.0626ZM137.962 58.5177L139.626 58.6386C143.229 58.9089 146.792 57.736 149.531 55.3781C152.271 53.0201 153.962 49.67 154.233 46.0646L155.83 24.2884L139.935 26.9751C139.816 27.0009 139.692 27.0009 139.573 26.9751L126.94 22.2061L125.342 43.942C125.083 47.5537 126.267 51.1207 128.632 53.8606C130.998 56.6006 134.353 58.2899 137.962 58.558V58.5177Z" fill="#231F20"/>
<path d="M140.781 47.9453C139.582 47.9449 138.386 47.8279 137.21 47.596C137.121 47.5801 137.036 47.5463 136.96 47.4967C136.884 47.4471 136.82 47.3828 136.769 47.3075C136.719 47.2322 136.685 47.1476 136.668 47.0586C136.652 46.9697 136.653 46.8784 136.673 46.79C136.689 46.7006 136.722 46.6153 136.772 46.5391C136.821 46.4628 136.885 46.3971 136.96 46.3459C137.035 46.2946 137.119 46.2588 137.208 46.2405C137.297 46.2222 137.389 46.2218 137.478 46.2392C138.806 46.4845 140.156 46.5836 141.506 46.5348C141.935 45.9437 141.17 41.3627 139.733 36.5937C139.707 36.5055 139.698 36.413 139.707 36.3214C139.717 36.2297 139.744 36.1409 139.788 36.0598C139.831 35.9787 139.89 35.907 139.962 35.8488C140.033 35.7906 140.115 35.747 140.203 35.7205C140.291 35.6941 140.384 35.6852 140.476 35.6946C140.567 35.7039 140.656 35.7311 140.737 35.7748C140.818 35.8184 140.89 35.8777 140.948 35.949C141.006 36.0204 141.049 36.1025 141.076 36.1907C141.734 38.367 143.761 45.5944 142.553 47.3811C142.447 47.5394 142.306 47.6705 142.14 47.7639C141.975 47.8573 141.789 47.9102 141.6 47.9185L140.781 47.9453Z" fill="#231F20"/>
<path d="M147.593 34.0708C147.691 32.7315 147.328 31.6132 146.78 31.573C146.233 31.5328 145.71 32.5859 145.612 33.9252C145.513 35.2645 145.877 36.3828 146.424 36.423C146.972 36.4632 147.495 35.4101 147.593 34.0708Z" fill="#231F20"/>
<path d="M134.908 32.5274C135.006 31.1881 134.642 30.0698 134.095 30.0296C133.548 29.9894 133.024 31.0425 132.926 32.3818C132.828 33.7211 133.192 34.8394 133.739 34.8796C134.286 34.9198 134.809 33.8667 134.908 32.5274Z" fill="#231F20"/>
<path d="M144.298 55.3205C144.177 55.3208 144.059 55.2886 143.955 55.2271C143.851 55.1656 143.765 55.0772 143.707 54.9712C140.405 49.2753 131.048 50.9411 130.954 50.9411C130.781 50.9625 130.607 50.9174 130.466 50.8148C130.325 50.7123 130.229 50.5601 130.197 50.389C130.164 50.218 130.198 50.041 130.291 49.8941C130.384 49.7471 130.53 49.6411 130.698 49.5977C131.128 49.5171 141.116 47.7841 144.902 54.313C144.995 54.4733 145.02 54.6638 144.972 54.8427C144.924 55.0215 144.807 55.174 144.647 55.2668C144.538 55.3168 144.417 55.3355 144.298 55.3205Z" fill="#231F20"/>
<path d="M200.629 105.173C200.629 105.173 204.012 89.926 191.312 86.5273C178.612 83.1285 140.297 84.9824 140.297 84.9824C140.297 84.9824 120.469 76.2101 117.622 79.0984C114.776 81.9866 111.702 88.502 112.252 91.8739C112.803 95.2458 117.891 98.0938 117.891 96.4011C117.891 94.7085 117.609 91.8739 117.609 91.8739C117.609 91.8739 125.234 97.8117 132.283 95.5548C132.283 95.5548 182.237 115.047 191.554 113.341C200.871 111.635 200.629 105.173 200.629 105.173Z" fill="white"/>
<path d="M190.279 114.134C178.505 114.134 136.23 97.8117 132.296 96.2937C126.698 97.946 120.952 94.9503 118.469 93.2845C118.549 94.2383 118.63 95.4742 118.63 96.4011C118.637 96.5533 118.614 96.7054 118.561 96.8484C118.509 96.9914 118.428 97.1225 118.324 97.2339C118.221 97.3454 118.096 97.4348 117.957 97.4972C117.818 97.5595 117.668 97.5933 117.515 97.5967C115.716 97.7311 112.145 94.91 111.608 91.9814C111.004 88.3543 114.146 81.7045 117.153 78.5476C120.16 75.3906 136.66 82.5777 140.365 84.2032C143.466 84.0554 179.123 82.4837 191.487 85.775C204.201 89.1737 201.556 103.951 201.314 105.16C201.314 106.047 200.858 112.293 191.715 113.959C191.243 114.063 190.762 114.122 190.279 114.134ZM132.39 94.8562C132.475 94.8422 132.561 94.8422 132.645 94.8562C133.142 95.0443 182.533 114.255 191.541 112.616C200.106 111.057 200.012 105.375 199.999 105.133C199.985 104.891 199.999 105.012 199.999 104.958C200.491 102.378 200.523 99.7313 200.093 97.14C199.153 91.7664 196.159 88.4617 191.192 87.1318C178.733 83.8136 140.7 85.5869 140.325 85.6003C140.219 85.626 140.108 85.626 140.002 85.6003C131.947 82.0404 119.865 77.8221 118.2 79.582C115.515 82.3628 112.508 88.6632 113.032 91.753C113.45 93.3093 114.444 94.6487 115.81 95.5011C116.25 95.8324 116.752 96.0701 117.287 96.1996C117.287 94.5338 117.019 91.968 117.019 91.9411C117.005 91.8072 117.03 91.6721 117.092 91.5526C117.154 91.4332 117.25 91.3347 117.368 91.2694C117.482 91.1965 117.615 91.1577 117.75 91.1577C117.886 91.1577 118.019 91.1965 118.133 91.2694C118.133 91.2694 125.557 96.9519 132.176 94.8428C132.247 94.8327 132.32 94.8373 132.39 94.8562Z" fill="#231F20"/>
<path d="M136.417 87.5079V91.659L146.513 93.889C146.513 93.889 153.548 86.6616 155.333 85.5063L154.608 81.6911L136.417 87.5079Z" fill="#231F20"/>
<path d="M146.567 94.5607H146.419L136.324 92.3307C136.173 92.2993 136.039 92.2164 135.943 92.0962C135.847 91.9759 135.797 91.826 135.8 91.6724V87.5214C135.8 87.3799 135.844 87.2419 135.926 87.1265C136.008 87.011 136.123 86.9237 136.256 86.8765L154.461 81.0731C154.547 81.0333 154.641 81.0127 154.736 81.0127C154.831 81.0127 154.925 81.0333 155.011 81.0731C155.17 81.1788 155.281 81.3429 155.32 81.5299L156.045 85.3451C156.067 85.4756 156.051 85.6098 155.999 85.7314C155.946 85.853 155.86 85.9568 155.75 86.0302C152.707 88.6394 149.804 91.4061 147.05 94.3189C146.99 94.3899 146.916 94.4479 146.833 94.4895C146.75 94.5311 146.66 94.5553 146.567 94.5607ZM137.169 91.1216L146.392 93.1636C147.614 91.9142 152.689 86.7556 154.689 85.2107L154.192 82.524L137.169 87.8975V91.1216Z" fill="#231F20"/>
<path d="M136.417 87.5079C136.417 87.5079 140.244 81.3149 144.607 79.5954L154.608 81.6911C154.608 81.6911 148.124 85.963 145.976 89.6708L136.417 87.5079Z" fill="white"/>
<path d="M146.03 90.3962H145.882L136.31 88.2333C136.203 88.2108 136.103 88.1623 136.018 88.092C135.934 88.0218 135.868 87.9319 135.827 87.8303C135.777 87.7325 135.751 87.6243 135.751 87.5146C135.751 87.405 135.777 87.2968 135.827 87.1989C135.988 86.9303 139.854 80.791 144.365 79.0043C144.493 78.9707 144.627 78.9707 144.754 79.0043L154.81 80.9925C154.944 81.02 155.067 81.0871 155.163 81.1853C155.259 81.2835 155.323 81.4083 155.347 81.5433C155.372 81.6774 155.356 81.816 155.301 81.9408C155.246 82.0656 155.154 82.1706 155.038 82.2419C155.038 82.2419 148.661 86.4601 146.634 89.9797C146.584 90.1003 146.501 90.2039 146.394 90.2779C146.286 90.3518 146.16 90.3929 146.03 90.3962ZM137.599 87.0915L145.654 88.9185C147.687 86.2688 150.13 83.9605 152.89 82.0807L144.674 80.3611C141.613 81.6508 138.767 85.3854 137.599 87.0512V87.0915Z" fill="#231F20"/>
<path d="M139.103 91.1619C138.225 92.2934 137.585 93.5905 137.221 94.9756C136.856 96.3606 136.775 97.805 136.982 99.2222L143.278 100.807C143.051 97.9132 143.682 95.0164 145.09 92.4784L139.103 91.1619Z" fill="#231F20"/>
<path d="M143.238 101.466H143.13L136.78 99.7999C136.644 99.7669 136.522 99.6921 136.431 99.5862C136.339 99.4802 136.283 99.3482 136.27 99.2088C136.051 97.7002 136.142 96.1627 136.54 94.691C136.937 93.2192 137.631 91.8445 138.579 90.6515C138.654 90.565 138.751 90.5006 138.86 90.4651C138.969 90.4296 139.085 90.4243 139.197 90.4499L145.198 91.7933C145.304 91.8156 145.402 91.8643 145.484 91.9347C145.566 92.0051 145.629 92.0951 145.668 92.1963C145.717 92.2918 145.743 92.3978 145.743 92.5053C145.743 92.6128 145.717 92.7188 145.668 92.8143C144.334 95.2218 143.741 97.9698 143.963 100.713C143.97 100.821 143.953 100.928 143.913 101.028C143.874 101.128 143.813 101.218 143.734 101.291C143.598 101.412 143.42 101.475 143.238 101.466ZM137.572 98.6714L142.526 99.9342C142.463 97.5118 142.974 95.1088 144.016 92.9218L139.318 91.9008C137.983 93.8934 137.368 96.2816 137.572 98.6714Z" fill="#231F20"/>
<path d="M145.184 85.3048C145.022 85.3064 144.864 85.2491 144.741 85.1436C144.642 85.0545 144.57 84.9389 144.534 84.8103C144.499 84.6818 144.5 84.5457 144.54 84.4182L145.399 81.7314C145.459 81.5683 145.58 81.4348 145.736 81.359C145.892 81.2833 146.072 81.271 146.237 81.3249C146.402 81.3789 146.54 81.4947 146.621 81.6482C146.703 81.8016 146.722 81.9807 146.674 82.1478L146.312 83.2763L148.997 81.9329C149.075 81.8942 149.16 81.8715 149.247 81.8661C149.335 81.8607 149.422 81.8727 149.504 81.9015C149.587 81.9303 149.663 81.9752 149.728 82.0336C149.793 82.0921 149.845 82.1628 149.883 82.2419C149.922 82.3212 149.945 82.4075 149.95 82.4957C149.956 82.584 149.944 82.6724 149.915 82.7561C149.886 82.8397 149.842 82.9168 149.783 82.983C149.724 83.0492 149.653 83.1032 149.574 83.1419L145.546 85.1436C145.443 85.23 145.317 85.2858 145.184 85.3048Z" fill="#B7B7B7"/>
<path d="M109.447 125.324C109.277 125.322 109.114 125.258 108.988 125.144C108.862 125.031 108.782 124.875 108.762 124.706C108.319 120.676 104.426 86.0033 104.426 84.7003C104.418 84.6077 104.43 84.5145 104.461 84.427C104.493 84.3396 104.543 84.2599 104.608 84.1936C104.673 84.1273 104.751 84.0758 104.838 84.0426C104.925 84.0095 105.018 83.9955 105.11 84.0017C105.294 84.0051 105.47 84.0798 105.6 84.2101C105.73 84.3404 105.805 84.5161 105.808 84.7003C105.808 85.7884 108.937 113.838 110.131 124.558C110.15 124.74 110.098 124.921 109.985 125.064C109.872 125.207 109.708 125.301 109.527 125.324H109.447Z" fill="#231F20"/>
<path d="M236.112 0.671692C212.027 0.671692 192.507 15.3011 192.507 33.3696C192.507 41.3493 196.32 48.6573 202.657 54.3264L192.803 62.0911L208.403 58.6386C216.769 63.6094 226.342 66.1796 236.071 66.0675C260.156 66.0675 279.676 51.4247 279.676 33.3696C279.676 15.3146 260.196 0.671692 236.112 0.671692Z" fill="white"/>
<path d="M236.112 66.7392C226.352 66.8324 216.748 64.2792 208.322 59.3506L192.99 62.7494C192.842 62.7829 192.687 62.7649 192.55 62.6984C192.413 62.6319 192.303 62.5209 192.237 62.3835C192.172 62.2461 192.155 62.0904 192.189 61.9421C192.224 61.7938 192.307 61.6616 192.427 61.5672L201.623 54.2995C195.3 48.3886 191.836 40.9732 191.836 33.3696C191.836 14.9653 211.692 0 236.138 0C260.585 0 280.441 14.9653 280.441 33.3696C280.441 51.774 260.518 66.7392 236.112 66.7392ZM208.443 57.967C208.566 57.9643 208.687 57.997 208.792 58.061C217.06 62.9531 226.507 65.4895 236.112 65.3959C259.78 65.3959 279.072 51.0217 279.072 33.3696C279.072 15.7176 259.807 1.34338 236.112 1.34338C212.416 1.34338 193.152 15.7041 193.152 33.3696C193.152 40.8254 196.682 48.1468 203.073 53.8293C203.145 53.8956 203.203 53.9766 203.243 54.0669C203.282 54.1572 203.302 54.2548 203.301 54.3533C203.301 54.4524 203.279 54.5503 203.234 54.639C203.19 54.7277 203.125 54.8047 203.046 54.8637L195.555 60.8418L208.295 58.0207L208.443 57.967Z" fill="#B7B7B7"/>
<path d="M233.373 41.2015C233.26 41.2033 233.149 41.1755 233.051 41.1209C232.946 41.0618 232.858 40.9761 232.797 40.8723C232.736 40.7685 232.703 40.6504 232.702 40.5298V14.1727C232.702 13.9945 232.772 13.8237 232.898 13.6977C233.024 13.5718 233.195 13.501 233.373 13.501C233.55 13.5044 233.719 13.5763 233.844 13.7015C233.969 13.8268 234.041 13.9956 234.044 14.1727V39.3477L255.363 25.4705C255.513 25.3725 255.695 25.338 255.87 25.3746C256.045 25.4111 256.198 25.5157 256.296 25.6653C256.394 25.815 256.428 25.9974 256.392 26.1725C256.355 26.3476 256.251 26.501 256.101 26.599L233.735 41.0941C233.626 41.1619 233.501 41.1991 233.373 41.2015Z" fill="#B7B7B7"/>
</svg>
